<svg xmlns="http://www.w3.org/2000/svg" viewBox="0 0 88.04321 26.20984"><title>Asset 1</title><path fill="#231f20" stroke="#231f20" stroke-miterlimit="10" d="M.5.5h87.043v25.21H.5z"></path><path d="M30.207 11.04l-3.73.414v.84H38.82L30.969 3.17l8.108-.042 3.839 4.381 3.466-4.38H62.47v9.164h.968a3.994 3.994 0 0 1-.293-1.438V7.603a4.973 4.973 0 0 1 5.067-4.517h12.12l.042 5.87h-8.235c-.591 0-.632 1.182.085 1.182h4.815a3.853 3.853 0 0 1 3.627 2.155h6.877V.5H24.777v3.686l5.43-1.104zM9.059 7.385L24.33 4.277V.5H.5v11.794h8.559V7.385z" fill="#fff"></path><path fill="#fff" d="M54.32 3.551l-6.964 8.743h6.964V3.551zM54.32 12.74h-6.822l6.822 7.786V12.74zM22.475 11.9l-6.581.732 6.581.743V11.9z"></path><path d="M87.543 25.71H.5V12.74h8.56v5.543l15.27 2.798v4.53h.446v-4.448l5.51 1.01v-7.914l-3.808-.431V12.74H38.78l-7.43 9.39 8.107.084 3.798-4.768 4.14 4.81H62.47V12.74h1.184c.595 1.052 1.88 2.127 4.644 2.127h3.842c.886 0 .93 1.436.085 1.436h-8.36v5.827H76.87a4.341 4.341 0 0 0 4.097-4.18v-4.097a4.186 4.186 0 0 0-.144-1.113h6.721z" fill="#fff"></path></svg>